<?xml version="1.0" encoding="UTF-8" standalone="no"?>
<!DOCTYPE svg PUBLIC "-//W3C//DTD SVG 1.1//EN"
 "http://www.w3.org/Graphics/SVG/1.1/DTD/svg11.dtd">
<!-- Generated by graphviz version 2.38.0 (20140413.2041)
 -->
<!-- Title: G Pages: 1 -->
<svg width="196pt" height="139pt"
 viewBox="0.00 0.00 196.00 139.00" xmlns="http://www.w3.org/2000/svg" xmlns:xlink="http://www.w3.org/1999/xlink">
<g id="graph0" class="graph" transform="scale(1 1) rotate(0) translate(4 135)">
<title>G</title>
<polygon fill="white" stroke="none" points="-4,4 -4,-135 192,-135 192,4 -4,4"/>
<!-- stack -->
<g id="node1" class="node"><title>stack</title>
<polygon fill="black" stroke="none" points="8,-86.5 8,-107.5 68,-107.5 68,-86.5 8,-86.5"/>
<polygon fill="none" stroke="black" points="8,-86.5 8,-107.5 68,-107.5 68,-86.5 8,-86.5"/>
<text text-anchor="start" x="22.5" y="-93.3" font-family="Times,serif" font-size="14.00" fill="white">Stack</text>
<polygon fill="lightgray" stroke="none" points="8,-65.5 8,-86.5 68,-86.5 68,-65.5 8,-65.5"/>
<polygon fill="none" stroke="black" points="8,-65.5 8,-86.5 68,-86.5 68,-65.5 8,-65.5"/>
<text text-anchor="start" x="36" y="-72.3" font-family="Times,serif" font-size="14.00"> </text>
<polygon fill="none" stroke="black" points="8,-44.5 8,-65.5 68,-65.5 68,-44.5 8,-44.5"/>
<text text-anchor="start" x="13" y="-51.3" font-family="monospace" font-size="14.00">Box&lt;T&gt;</text>
<polygon fill="lightgray" stroke="none" points="8,-23.5 8,-44.5 68,-44.5 68,-23.5 8,-23.5"/>
<polygon fill="none" stroke="black" points="8,-23.5 8,-44.5 68,-44.5 68,-23.5 8,-23.5"/>
<text text-anchor="start" x="36" y="-30.3" font-family="Times,serif" font-size="14.00"> </text>
</g>
<!-- heap -->
<g id="node2" class="node"><title>heap</title>
<polygon fill="black" stroke="none" points="120,-105.5 120,-126.5 180,-126.5 180,-105.5 120,-105.5"/>
<polygon fill="none" stroke="black" points="120,-105.5 120,-126.5 180,-126.5 180,-105.5 120,-105.5"/>
<text text-anchor="start" x="135.5" y="-112.3" font-family="Times,serif" font-size="14.00" fill="white">Heap</text>
<polygon fill="lightgray" stroke="none" points="120,-84.5 120,-105.5 180,-105.5 180,-84.5 120,-84.5"/>
<polygon fill="none" stroke="black" points="120,-84.5 120,-105.5 180,-105.5 180,-84.5 120,-84.5"/>
<text text-anchor="start" x="148" y="-91.3" font-family="Times,serif" font-size="14.00"> </text>
<polygon fill="yellow" stroke="none" points="120,-24.5 120,-84.5 180,-84.5 180,-24.5 120,-24.5"/>
<polygon fill="none" stroke="black" points="120,-24.5 120,-84.5 180,-84.5 180,-24.5 120,-24.5"/>
<text text-anchor="start" x="123" y="-70.3" font-family="Times,serif" font-size="14.00">T object</text>
<polygon fill="lightgray" stroke="none" points="120,-3.5 120,-24.5 180,-24.5 180,-3.5 120,-3.5"/>
<polygon fill="none" stroke="black" points="120,-3.5 120,-24.5 180,-24.5 180,-3.5 120,-3.5"/>
<text text-anchor="start" x="148" y="-10.3" font-family="Times,serif" font-size="14.00"> </text>
</g>
<!-- stack&#45;&gt;heap -->
<g id="edge1" class="edge"><title>stack:ptr&#45;&gt;heap:obj</title>
<path fill="none" stroke="black" d="M69,-54.5C87.4028,-54.5 94.3757,-54.5 108.849,-54.5"/>
<polygon fill="black" stroke="black" points="109,-58.0001 119,-54.5 109,-51.0001 109,-58.0001"/>
</g>
</g>
</svg>
