<?xml version="1.0" encoding="UTF-8" standalone="no"?>
<!DOCTYPE svg PUBLIC "-//W3C//DTD SVG 1.1//EN"
 "http://www.w3.org/Graphics/SVG/1.1/DTD/svg11.dtd">
<!-- Generated by graphviz version 2.38.0 (20140413.2041)
 -->
<!-- Title: G Pages: 1 -->
<svg width="336pt" height="370pt"
 viewBox="0.00 0.00 336.00 370.00" xmlns="http://www.w3.org/2000/svg" xmlns:xlink="http://www.w3.org/1999/xlink">
<g id="graph0" class="graph" transform="scale(1 1) rotate(0) translate(4 366)">
<title>G</title>
<polygon fill="white" stroke="none" points="-4,4 -4,-366 332,-366 332,4 -4,4"/>
<!-- stack -->
<g id="node1" class="node"><title>stack</title>
<polygon fill="black" stroke="none" points="8,-277 8,-298 148,-298 148,-277 8,-277"/>
<polygon fill="none" stroke="black" points="8,-277 8,-298 148,-298 148,-277 8,-277"/>
<text text-anchor="start" x="62.5" y="-283.8" font-family="Times,serif" font-size="14.00" fill="white">Stack</text>
<polygon fill="lightgray" stroke="none" points="8,-256 8,-277 148,-277 148,-256 8,-256"/>
<polygon fill="none" stroke="black" points="8,-256 8,-277 148,-277 148,-256 8,-256"/>
<text text-anchor="start" x="76" y="-262.8" font-family="Times,serif" font-size="14.00"> </text>
<polygon fill="none" stroke="black" points="8,-235 8,-256 148,-256 148,-235 8,-235"/>
<text text-anchor="start" x="32.5" y="-241.8" font-family="monospace" font-size="14.00">Rc&lt;Cell&lt;T&gt;&gt;</text>
<polygon fill="lightgray" stroke="none" points="8,-214 8,-235 148,-235 148,-214 8,-214"/>
<polygon fill="none" stroke="black" points="8,-214 8,-235 148,-235 148,-214 8,-214"/>
<text text-anchor="start" x="76" y="-220.8" font-family="Times,serif" font-size="14.00"> </text>
<polygon fill="none" stroke="black" points="8,-193 8,-214 148,-214 148,-193 8,-193"/>
<text text-anchor="start" x="20" y="-199.8" font-family="monospace" font-size="14.00">Rc&lt;RefCell&lt;T&gt;&gt;</text>
<polygon fill="lightgray" stroke="none" points="8,-172 8,-193 148,-193 148,-172 8,-172"/>
<polygon fill="none" stroke="black" points="8,-172 8,-193 148,-193 148,-172 8,-172"/>
<text text-anchor="start" x="76" y="-178.8" font-family="Times,serif" font-size="14.00"> </text>
</g>
<!-- heap -->
<g id="node2" class="node"><title>heap</title>
<polygon fill="black" stroke="none" points="200,-337 200,-358 320,-358 320,-337 200,-337"/>
<polygon fill="none" stroke="black" points="200,-337 200,-358 320,-358 320,-337 200,-337"/>
<text text-anchor="start" x="245.5" y="-343.8" font-family="Times,serif" font-size="14.00" fill="white">Heap</text>
<polygon fill="lightgray" stroke="none" points="200,-316 200,-337 320,-337 320,-316 200,-316"/>
<polygon fill="none" stroke="black" points="200,-316 200,-337 320,-337 320,-316 200,-316"/>
<text text-anchor="start" x="258" y="-322.8" font-family="Times,serif" font-size="14.00"> </text>
<polygon fill="none" stroke="black" points="200,-202 200,-316 320,-316 320,-202 200,-202"/>
<polygon fill="none" stroke="black" points="203,-292 203,-313 317,-313 317,-292 203,-292"/>
<text text-anchor="start" x="206" y="-298.8" font-family="Times,serif" font-size="14.00">strong count</text>
<polygon fill="none" stroke="black" points="203,-271 203,-292 317,-292 317,-271 203,-271"/>
<text text-anchor="start" x="206" y="-277.8" font-family="Times,serif" font-size="14.00">weak count</text>
<polygon fill="none" stroke="black" points="203,-205 203,-271 317,-271 317,-205 203,-205"/>
<polygon fill="yellow" stroke="none" points="206,-208 206,-268 314,-268 314,-208 206,-208"/>
<polygon fill="none" stroke="black" points="206,-208 206,-268 314,-268 314,-208 206,-208"/>
<text text-anchor="start" x="209" y="-253.8" font-family="Times,serif" font-size="14.00">T object</text>
<polygon fill="lightgray" stroke="none" points="200,-181 200,-202 320,-202 320,-181 200,-181"/>
<polygon fill="none" stroke="black" points="200,-181 200,-202 320,-202 320,-181 200,-181"/>
<text text-anchor="start" x="258" y="-187.8" font-family="Times,serif" font-size="14.00"> </text>
<polygon fill="lightgray" stroke="none" points="200,-160 200,-181 320,-181 320,-160 200,-160"/>
<polygon fill="none" stroke="black" points="200,-160 200,-181 320,-181 320,-160 200,-160"/>
<text text-anchor="start" x="258" y="-166.8" font-family="Times,serif" font-size="14.00"> </text>
<polygon fill="none" stroke="black" points="200,-25 200,-160 320,-160 320,-25 200,-25"/>
<polygon fill="none" stroke="black" points="203,-136 203,-157 317,-157 317,-136 203,-136"/>
<text text-anchor="start" x="206" y="-142.8" font-family="Times,serif" font-size="14.00">strong count</text>
<polygon fill="none" stroke="black" points="203,-115 203,-136 317,-136 317,-115 203,-115"/>
<text text-anchor="start" x="206" y="-121.8" font-family="Times,serif" font-size="14.00">weak count</text>
<polygon fill="none" stroke="black" points="203,-28 203,-115 317,-115 317,-28 203,-28"/>
<polygon fill="none" stroke="black" points="206,-91 206,-112 314,-112 314,-91 206,-91"/>
<text text-anchor="start" x="209" y="-97.8" font-family="Times,serif" font-size="14.00">borrow count</text>
<polygon fill="yellow" stroke="none" points="206,-31 206,-91 314,-91 314,-31 206,-31"/>
<polygon fill="none" stroke="black" points="206,-31 206,-91 314,-91 314,-31 206,-31"/>
<text text-anchor="start" x="209" y="-76.8" font-family="Times,serif" font-size="14.00">T object</text>
<polygon fill="lightgray" stroke="none" points="200,-4 200,-25 320,-25 320,-4 200,-4"/>
<polygon fill="none" stroke="black" points="200,-4 200,-25 320,-25 320,-4 200,-4"/>
<text text-anchor="start" x="258" y="-10.8" font-family="Times,serif" font-size="14.00"> </text>
</g>
<!-- stack&#45;&gt;heap -->
<g id="edge1" class="edge"><title>stack:ptr1&#45;&gt;heap:obj1</title>
<path fill="none" stroke="black" d="M149,-246C179.674,-246 170.423,-290.817 192.051,-300.971"/>
<polygon fill="black" stroke="black" points="191.502,-304.431 202,-303 192.901,-297.573 191.502,-304.431"/>
</g>
<!-- stack&#45;&gt;heap -->
<g id="edge2" class="edge"><title>stack:ptr2&#45;&gt;heap:obj2</title>
<path fill="none" stroke="black" d="M149,-203C179.674,-203 170.423,-158.183 192.051,-148.029"/>
<polygon fill="black" stroke="black" points="192.901,-151.427 202,-146 191.502,-144.569 192.901,-151.427"/>
</g>
</g>
</svg>
