<?xml version="1.0" encoding="UTF-8" standalone="no"?>
<!DOCTYPE svg PUBLIC "-//W3C//DTD SVG 1.1//EN"
 "http://www.w3.org/Graphics/SVG/1.1/DTD/svg11.dtd">
<!-- Generated by graphviz version 2.38.0 (20140413.2041)
 -->
<!-- Title: g Pages: 1 -->
<svg width="710pt" height="219pt"
 viewBox="0.00 0.00 710.00 218.50" xmlns="http://www.w3.org/2000/svg" xmlns:xlink="http://www.w3.org/1999/xlink">
<g id="graph0" class="graph" transform="scale(1 1) rotate(0) translate(4 214.5)">
<title>g</title>
<polygon fill="white" stroke="none" points="-4,4 -4,-214.5 706,-214.5 706,4 -4,4"/>
<!-- stack -->
<g id="node1" class="node"><title>stack</title>
<polygon fill="black" stroke="none" points="8.5,-185 8.5,-206 105.5,-206 105.5,-185 8.5,-185"/>
<polygon fill="none" stroke="black" points="8.5,-185 8.5,-206 105.5,-206 105.5,-185 8.5,-185"/>
<text text-anchor="start" x="41.5" y="-191.8" font-family="Times,serif" font-size="14.00" fill="white">Stack</text>
<polygon fill="lightgray" stroke="none" points="8.5,-164 8.5,-185 105.5,-185 105.5,-164 8.5,-164"/>
<polygon fill="none" stroke="black" points="8.5,-164 8.5,-185 105.5,-185 105.5,-164 8.5,-164"/>
<text text-anchor="start" x="55" y="-170.8" font-family="Times,serif" font-size="14.00"> </text>
<polygon fill="none" stroke="black" points="8.5,-143 8.5,-164 105.5,-164 105.5,-143 8.5,-143"/>
<text text-anchor="start" x="11.5" y="-149.8" font-family="monospace" font-size="14.00">Rational* r</text>
<polygon fill="lightgray" stroke="none" points="8.5,-122 8.5,-143 105.5,-143 105.5,-122 8.5,-122"/>
<polygon fill="none" stroke="black" points="8.5,-122 8.5,-143 105.5,-143 105.5,-122 8.5,-122"/>
<text text-anchor="start" x="55" y="-128.8" font-family="Times,serif" font-size="14.00"> </text>
<polygon fill="none" stroke="black" points="8.5,-101 8.5,-122 105.5,-122 105.5,-101 8.5,-101"/>
<text text-anchor="start" x="11.5" y="-107.8" font-family="monospace" font-size="14.00">Complex* c</text>
<polygon fill="lightgray" stroke="none" points="8.5,-80 8.5,-101 105.5,-101 105.5,-80 8.5,-80"/>
<polygon fill="none" stroke="black" points="8.5,-80 8.5,-101 105.5,-101 105.5,-80 8.5,-80"/>
<text text-anchor="start" x="55" y="-86.8" font-family="Times,serif" font-size="14.00"> </text>
<polygon fill="lightgray" stroke="none" points="8.5,-59 8.5,-80 105.5,-80 105.5,-59 8.5,-59"/>
<polygon fill="none" stroke="black" points="8.5,-59 8.5,-80 105.5,-80 105.5,-59 8.5,-59"/>
<text text-anchor="start" x="55" y="-65.8" font-family="Times,serif" font-size="14.00"> </text>
</g>
<!-- obj_r -->
<g id="node2" class="node"><title>obj_r</title>
<polygon fill="black" stroke="none" points="157.5,-177 157.5,-198 298.5,-198 298.5,-177 157.5,-177"/>
<polygon fill="none" stroke="black" points="157.5,-177 157.5,-198 298.5,-198 298.5,-177 157.5,-177"/>
<text text-anchor="start" x="160.5" y="-184.8" font-family="Times,serif" font-size="14.00" fill="white">Instance of  </text>
<text text-anchor="start" x="228.5" y="-184.8" font-family="monospace" font-size="14.00" fill="white">Rational</text>
<polygon fill="yellow" stroke="none" points="157.5,-156 157.5,-177 298.5,-177 298.5,-156 157.5,-156"/>
<polygon fill="none" stroke="black" points="157.5,-156 157.5,-177 298.5,-177 298.5,-156 157.5,-156"/>
<text text-anchor="start" x="160.5" y="-162.8" font-family="monospace" font-size="14.00">vtable</text>
<polygon fill="none" stroke="black" points="157.5,-135 157.5,-156 298.5,-156 298.5,-135 157.5,-135"/>
<text text-anchor="start" x="160.5" y="-141.8" font-family="monospace" font-size="14.00">int den</text>
<polygon fill="none" stroke="black" points="157.5,-114 157.5,-135 298.5,-135 298.5,-114 157.5,-114"/>
<text text-anchor="start" x="160.5" y="-120.8" font-family="monospace" font-size="14.00">int nom</text>
</g>
<!-- stack&#45;&gt;obj_r -->
<g id="edge1" class="edge"><title>stack:ptr_r&#45;&gt;obj_r:h</title>
<path fill="none" stroke="black" d="M106.5,-154C129.384,-154 130.064,-178.655 146.357,-185.975"/>
<polygon fill="black" stroke="black" points="146.008,-189.474 156.5,-188 147.379,-182.61 146.008,-189.474"/>
</g>
<!-- obj_c -->
<g id="node3" class="node"><title>obj_c</title>
<polygon fill="black" stroke="none" points="161.5,-67 161.5,-88 293.5,-88 293.5,-67 161.5,-67"/>
<polygon fill="none" stroke="black" points="161.5,-67 161.5,-88 293.5,-88 293.5,-67 161.5,-67"/>
<text text-anchor="start" x="164.5" y="-74.8" font-family="Times,serif" font-size="14.00" fill="white">Instance of  </text>
<text text-anchor="start" x="232.5" y="-74.8" font-family="monospace" font-size="14.00" fill="white">Complex</text>
<polygon fill="yellow" stroke="none" points="161.5,-46 161.5,-67 293.5,-67 293.5,-46 161.5,-46"/>
<polygon fill="none" stroke="black" points="161.5,-46 161.5,-67 293.5,-67 293.5,-46 161.5,-46"/>
<text text-anchor="start" x="164.5" y="-52.8" font-family="monospace" font-size="14.00">vtable</text>
<polygon fill="none" stroke="black" points="161.5,-25 161.5,-46 293.5,-46 293.5,-25 161.5,-25"/>
<text text-anchor="start" x="164.5" y="-31.8" font-family="monospace" font-size="14.00">double real</text>
<polygon fill="none" stroke="black" points="161.5,-4 161.5,-25 293.5,-25 293.5,-4 161.5,-4"/>
<text text-anchor="start" x="164.5" y="-10.8" font-family="monospace" font-size="14.00">double imginary</text>
</g>
<!-- stack&#45;&gt;obj_c -->
<g id="edge4" class="edge"><title>stack:ptr_c&#45;&gt;obj_c:h</title>
<path fill="none" stroke="black" d="M106.5,-111C130.671,-111 132.406,-86.6287 150.267,-79.7742"/>
<polygon fill="black" stroke="black" points="151.245,-83.157 160.5,-78 150.049,-76.2599 151.245,-83.157"/>
</g>
<!-- table_r -->
<g id="node4" class="node"><title>table_r</title>
<polygon fill="black" stroke="none" points="350.5,-167 350.5,-188 479.5,-188 479.5,-167 350.5,-167"/>
<polygon fill="none" stroke="black" points="350.5,-167 350.5,-188 479.5,-188 479.5,-167 350.5,-167"/>
<text text-anchor="start" x="353.5" y="-174.8" font-family="Times,serif" font-size="14.00" fill="white">vtable of  </text>
<text text-anchor="start" x="409.5" y="-174.8" font-family="monospace" font-size="14.00" fill="white">Rational</text>
<polygon fill="none" stroke="black" points="350.5,-146 350.5,-167 479.5,-167 479.5,-146 350.5,-146"/>
<text text-anchor="start" x="353.5" y="-152.8" font-family="monospace" font-size="14.00">to_json()</text>
</g>
<!-- obj_r&#45;&gt;table_r -->
<g id="edge2" class="edge"><title>obj_r:v&#45;&gt;table_r</title>
<path fill="none" stroke="black" d="M299.5,-167C309.849,-167 320.726,-167 331.484,-167"/>
<polygon fill="black" stroke="black" points="331.741,-170.5 341.741,-167 331.741,-163.5 331.741,-170.5"/>
</g>
<!-- table_c -->
<g id="node5" class="node"><title>table_c</title>
<polygon fill="black" stroke="none" points="354.5,-57 354.5,-78 474.5,-78 474.5,-57 354.5,-57"/>
<polygon fill="none" stroke="black" points="354.5,-57 354.5,-78 474.5,-78 474.5,-57 354.5,-57"/>
<text text-anchor="start" x="357.5" y="-64.8" font-family="Times,serif" font-size="14.00" fill="white">vtable of  </text>
<text text-anchor="start" x="413.5" y="-64.8" font-family="monospace" font-size="14.00" fill="white">Complex</text>
<polygon fill="none" stroke="black" points="354.5,-36 354.5,-57 474.5,-57 474.5,-36 354.5,-36"/>
<text text-anchor="start" x="357.5" y="-42.8" font-family="monospace" font-size="14.00">to_json()</text>
</g>
<!-- obj_c&#45;&gt;table_c -->
<g id="edge5" class="edge"><title>obj_c:v&#45;&gt;table_c</title>
<path fill="none" stroke="black" d="M294.5,-57C308.049,-57 322.466,-57 336.417,-57"/>
<polygon fill="black" stroke="black" points="336.474,-60.5001 346.474,-57 336.473,-53.5001 336.474,-60.5001"/>
</g>
<!-- func_r -->
<g id="node6" class="node"><title>func_r</title>
<polygon fill="black" stroke="none" points="531.5,-175 531.5,-196 694.5,-196 694.5,-175 531.5,-175"/>
<polygon fill="none" stroke="black" points="531.5,-175 531.5,-196 694.5,-196 694.5,-175 531.5,-175"/>
<text text-anchor="start" x="534.5" y="-181.8" font-family="monospace" font-size="14.00" fill="white">Rational::to_json()</text>
<polygon fill="none" stroke="black" points="531.5,-115 531.5,-175 694.5,-175 694.5,-115 531.5,-115"/>
<text text-anchor="start" x="534.5" y="-141.3" font-family="Times,serif" font-size="14.00">(method implementation)</text>
</g>
<!-- table_r&#45;&gt;func_r -->
<g id="edge3" class="edge"><title>table_r:f&#45;&gt;func_r</title>
<path fill="none" stroke="black" d="M480.5,-156C490.841,-156 501.641,-156 512.411,-156"/>
<polygon fill="black" stroke="black" points="512.712,-159.5 522.712,-156 512.712,-152.5 512.712,-159.5"/>
</g>
<!-- func_c -->
<g id="node7" class="node"><title>func_c</title>
<polygon fill="black" stroke="none" points="535.5,-65 535.5,-86 690.5,-86 690.5,-65 535.5,-65"/>
<polygon fill="none" stroke="black" points="535.5,-65 535.5,-86 690.5,-86 690.5,-65 535.5,-65"/>
<text text-anchor="start" x="538.5" y="-71.8" font-family="monospace" font-size="14.00" fill="white">Complex::to_json()</text>
<polygon fill="none" stroke="black" points="535.5,-5 535.5,-65 690.5,-65 690.5,-5 535.5,-5"/>
<text text-anchor="start" x="538.5" y="-31.3" font-family="Times,serif" font-size="14.00">(method implementation)</text>
</g>
<!-- table_c&#45;&gt;func_c -->
<g id="edge6" class="edge"><title>table_c:f&#45;&gt;func_c</title>
<path fill="none" stroke="black" d="M475.5,-46C488.895,-46 503.031,-46 516.924,-46"/>
<polygon fill="black" stroke="black" points="516.982,-49.5001 526.982,-46 516.982,-42.5001 516.982,-49.5001"/>
</g>
</g>
</svg>
