<?xml version="1.0" encoding="UTF-8" standalone="no"?>
<!DOCTYPE svg PUBLIC "-//W3C//DTD SVG 1.1//EN"
 "http://www.w3.org/Graphics/SVG/1.1/DTD/svg11.dtd">
<!-- Generated by graphviz version 2.38.0 (20140413.2041)
 -->
<!-- Title: G Pages: 1 -->
<svg width="222pt" height="187pt"
 viewBox="0.00 0.00 222.00 187.00" xmlns="http://www.w3.org/2000/svg" xmlns:xlink="http://www.w3.org/1999/xlink">
<g id="graph0" class="graph" transform="scale(1 1) rotate(0) translate(4 183)">
<title>G</title>
<polygon fill="white" stroke="none" points="-4,4 -4,-183 218,-183 218,4 -4,4"/>
<!-- stack -->
<g id="node1" class="node"><title>stack</title>
<polygon fill="black" stroke="none" points="8,-151.5 8,-172.5 68,-172.5 68,-151.5 8,-151.5"/>
<polygon fill="none" stroke="black" points="8,-151.5 8,-172.5 68,-172.5 68,-151.5 8,-151.5"/>
<text text-anchor="start" x="22.5" y="-158.3" font-family="Times,serif" font-size="14.00" fill="white">Stack</text>
<polygon fill="lightgray" stroke="none" points="8,-130.5 8,-151.5 68,-151.5 68,-130.5 8,-130.5"/>
<polygon fill="none" stroke="black" points="8,-130.5 8,-151.5 68,-151.5 68,-130.5 8,-130.5"/>
<text text-anchor="start" x="36" y="-137.3" font-family="Times,serif" font-size="14.00"> </text>
<polygon fill="none" stroke="black" points="8,-109.5 8,-130.5 68,-130.5 68,-109.5 8,-109.5"/>
<text text-anchor="start" x="17" y="-116.3" font-family="monospace" font-size="14.00">Rc&lt;T&gt;</text>
<polygon fill="lightgray" stroke="none" points="8,-88.5 8,-109.5 68,-109.5 68,-88.5 8,-88.5"/>
<polygon fill="none" stroke="black" points="8,-88.5 8,-109.5 68,-109.5 68,-88.5 8,-88.5"/>
<text text-anchor="start" x="36" y="-95.3" font-family="Times,serif" font-size="14.00"> </text>
</g>
<!-- heap -->
<g id="node2" class="node"><title>heap</title>
<polygon fill="black" stroke="none" points="120,-153.5 120,-174.5 206,-174.5 206,-153.5 120,-153.5"/>
<polygon fill="none" stroke="black" points="120,-153.5 120,-174.5 206,-174.5 206,-153.5 120,-153.5"/>
<text text-anchor="start" x="148.5" y="-160.3" font-family="Times,serif" font-size="14.00" fill="white">Heap</text>
<polygon fill="lightgray" stroke="none" points="120,-132.5 120,-153.5 206,-153.5 206,-132.5 120,-132.5"/>
<polygon fill="none" stroke="black" points="120,-132.5 120,-153.5 206,-153.5 206,-132.5 120,-132.5"/>
<text text-anchor="start" x="161" y="-139.3" font-family="Times,serif" font-size="14.00"> </text>
<polygon fill="none" stroke="black" points="120,-24.5 120,-132.5 206,-132.5 206,-24.5 120,-24.5"/>
<polygon fill="none" stroke="black" points="123,-108.5 123,-129.5 203,-129.5 203,-108.5 123,-108.5"/>
<text text-anchor="start" x="126" y="-115.3" font-family="Times,serif" font-size="14.00">strong count</text>
<polygon fill="none" stroke="black" points="123,-87.5 123,-108.5 203,-108.5 203,-87.5 123,-87.5"/>
<text text-anchor="start" x="126" y="-94.3" font-family="Times,serif" font-size="14.00">weak count</text>
<polygon fill="yellow" stroke="none" points="123,-27.5 123,-87.5 203,-87.5 203,-27.5 123,-27.5"/>
<polygon fill="none" stroke="black" points="123,-27.5 123,-87.5 203,-87.5 203,-27.5 123,-27.5"/>
<text text-anchor="start" x="126" y="-73.3" font-family="Times,serif" font-size="14.00">T object</text>
<polygon fill="lightgray" stroke="none" points="120,-3.5 120,-24.5 206,-24.5 206,-3.5 120,-3.5"/>
<polygon fill="none" stroke="black" points="120,-3.5 120,-24.5 206,-24.5 206,-3.5 120,-3.5"/>
<text text-anchor="start" x="161" y="-10.3" font-family="Times,serif" font-size="14.00"> </text>
</g>
<!-- stack&#45;&gt;heap -->
<g id="edge1" class="edge"><title>stack:ptr&#45;&gt;heap:obj</title>
<path fill="none" stroke="black" d="M69,-119.5C88.691,-119.5 96.0366,-119.5 111.677,-119.5"/>
<polygon fill="black" stroke="black" points="112,-123 122,-119.5 112,-116 112,-123"/>
</g>
</g>
</svg>
