<?xml version="1.0" encoding="UTF-8" standalone="no"?>
<!DOCTYPE svg PUBLIC "-//W3C//DTD SVG 1.1//EN"
 "http://www.w3.org/Graphics/SVG/1.1/DTD/svg11.dtd">
<!-- Generated by graphviz version 2.38.0 (20140413.2041)
 -->
<!-- Title: g Pages: 1 -->
<svg width="660pt" height="472pt"
 viewBox="0.00 0.00 660.00 472.00" xmlns="http://www.w3.org/2000/svg" xmlns:xlink="http://www.w3.org/1999/xlink">
<g id="graph0" class="graph" transform="scale(1 1) rotate(0) translate(4 468)">
<title>g</title>
<polygon fill="white" stroke="none" points="-4,4 -4,-468 656,-468 656,4 -4,4"/>
<!-- stack -->
<g id="node1" class="node"><title>stack</title>
<polygon fill="black" stroke="none" points="8,-418.5 8,-439.5 136,-439.5 136,-418.5 8,-418.5"/>
<polygon fill="none" stroke="black" points="8,-418.5 8,-439.5 136,-439.5 136,-418.5 8,-418.5"/>
<text text-anchor="start" x="56.5" y="-425.3" font-family="Times,serif" font-size="14.00" fill="white">Stack</text>
<polygon fill="lightgray" stroke="none" points="8,-397.5 8,-418.5 136,-418.5 136,-397.5 8,-397.5"/>
<polygon fill="none" stroke="black" points="8,-397.5 8,-418.5 136,-418.5 136,-397.5 8,-397.5"/>
<text text-anchor="start" x="70" y="-404.3" font-family="Times,serif" font-size="14.00"> </text>
<polygon fill="none" stroke="black" points="8,-328.5 8,-397.5 136,-397.5 136,-328.5 8,-328.5"/>
<polygon fill="black" stroke="none" points="11,-373.5 11,-394.5 133,-394.5 133,-373.5 11,-373.5"/>
<polygon fill="none" stroke="black" points="11,-373.5 11,-394.5 133,-394.5 133,-373.5 11,-373.5"/>
<text text-anchor="start" x="14" y="-380.3" font-family="monospace" font-size="14.00" fill="white">r: &amp;JsonObject</text>
<polygon fill="none" stroke="black" points="11,-352.5 11,-373.5 133,-373.5 133,-352.5 11,-352.5"/>
<text text-anchor="start" x="14" y="-359.3" font-family="monospace" font-size="14.00">&amp;Rational</text>
<polygon fill="yellow" stroke="none" points="11,-331.5 11,-352.5 133,-352.5 133,-331.5 11,-331.5"/>
<polygon fill="none" stroke="black" points="11,-331.5 11,-352.5 133,-352.5 133,-331.5 11,-331.5"/>
<text text-anchor="start" x="14" y="-338.3" font-family="monospace" font-size="14.00">vtable</text>
<polygon fill="lightgray" stroke="none" points="8,-307.5 8,-328.5 136,-328.5 136,-307.5 8,-307.5"/>
<polygon fill="none" stroke="black" points="8,-307.5 8,-328.5 136,-328.5 136,-307.5 8,-307.5"/>
<text text-anchor="start" x="70" y="-314.3" font-family="Times,serif" font-size="14.00"> </text>
<polygon fill="none" stroke="black" points="8,-238.5 8,-307.5 136,-307.5 136,-238.5 8,-238.5"/>
<polygon fill="black" stroke="none" points="11,-283.5 11,-304.5 133,-304.5 133,-283.5 11,-283.5"/>
<polygon fill="none" stroke="black" points="11,-283.5 11,-304.5 133,-304.5 133,-283.5 11,-283.5"/>
<text text-anchor="start" x="14" y="-290.3" font-family="monospace" font-size="14.00" fill="white">c: &amp;JsonObject</text>
<polygon fill="none" stroke="black" points="11,-262.5 11,-283.5 133,-283.5 133,-262.5 11,-262.5"/>
<text text-anchor="start" x="14" y="-269.3" font-family="monospace" font-size="14.00">&amp;Complex</text>
<polygon fill="yellow" stroke="none" points="11,-241.5 11,-262.5 133,-262.5 133,-241.5 11,-241.5"/>
<polygon fill="none" stroke="black" points="11,-241.5 11,-262.5 133,-262.5 133,-241.5 11,-241.5"/>
<text text-anchor="start" x="14" y="-248.3" font-family="monospace" font-size="14.00">vtable</text>
<polygon fill="lightgray" stroke="none" points="8,-217.5 8,-238.5 136,-238.5 136,-217.5 8,-217.5"/>
<polygon fill="none" stroke="black" points="8,-217.5 8,-238.5 136,-238.5 136,-217.5 8,-217.5"/>
<text text-anchor="start" x="70" y="-224.3" font-family="Times,serif" font-size="14.00"> </text>
<polygon fill="lightgray" stroke="none" points="8,-196.5 8,-217.5 136,-217.5 136,-196.5 8,-196.5"/>
<polygon fill="none" stroke="black" points="8,-196.5 8,-217.5 136,-217.5 136,-196.5 8,-196.5"/>
<text text-anchor="start" x="70" y="-203.3" font-family="Times,serif" font-size="14.00"> </text>
<polygon fill="lightgray" stroke="none" points="8,-175.5 8,-196.5 136,-196.5 136,-175.5 8,-175.5"/>
<polygon fill="none" stroke="black" points="8,-175.5 8,-196.5 136,-196.5 136,-175.5 8,-175.5"/>
<text text-anchor="start" x="70" y="-182.3" font-family="Times,serif" font-size="14.00"> </text>
<polygon fill="none" stroke="black" points="8,-106.5 8,-175.5 136,-175.5 136,-106.5 8,-106.5"/>
<polygon fill="black" stroke="none" points="11,-151.5 11,-172.5 133,-172.5 133,-151.5 11,-151.5"/>
<polygon fill="none" stroke="black" points="11,-151.5 11,-172.5 133,-172.5 133,-151.5 11,-151.5"/>
<text text-anchor="start" x="14" y="-158.3" font-family="monospace" font-size="14.00" fill="white">i: &amp;JsonObject</text>
<polygon fill="none" stroke="black" points="11,-130.5 11,-151.5 133,-151.5 133,-130.5 11,-130.5"/>
<text text-anchor="start" x="14" y="-137.3" font-family="monospace" font-size="14.00">&amp;i32</text>
<polygon fill="yellow" stroke="none" points="11,-109.5 11,-130.5 133,-130.5 133,-109.5 11,-109.5"/>
<polygon fill="none" stroke="black" points="11,-109.5 11,-130.5 133,-130.5 133,-109.5 11,-109.5"/>
<text text-anchor="start" x="14" y="-116.3" font-family="monospace" font-size="14.00">vtable</text>
<polygon fill="lightgray" stroke="none" points="8,-85.5 8,-106.5 136,-106.5 136,-85.5 8,-85.5"/>
<polygon fill="none" stroke="black" points="8,-85.5 8,-106.5 136,-106.5 136,-85.5 8,-85.5"/>
<text text-anchor="start" x="70" y="-92.3" font-family="Times,serif" font-size="14.00"> </text>
</g>
<!-- obj_r -->
<g id="node2" class="node"><title>obj_r</title>
<polygon fill="black" stroke="none" points="238.5,-438.5 238.5,-459.5 379.5,-459.5 379.5,-438.5 238.5,-438.5"/>
<polygon fill="none" stroke="black" points="238.5,-438.5 238.5,-459.5 379.5,-459.5 379.5,-438.5 238.5,-438.5"/>
<text text-anchor="start" x="241.5" y="-446.3" font-family="Times,serif" font-size="14.00" fill="white">Instance of  </text>
<text text-anchor="start" x="309.5" y="-446.3" font-family="monospace" font-size="14.00" fill="white">Rational</text>
<polygon fill="none" stroke="black" points="238.5,-417.5 238.5,-438.5 379.5,-438.5 379.5,-417.5 238.5,-417.5"/>
<text text-anchor="start" x="241.5" y="-424.3" font-family="monospace" font-size="14.00">nom: i32</text>
<polygon fill="none" stroke="black" points="238.5,-396.5 238.5,-417.5 379.5,-417.5 379.5,-396.5 238.5,-396.5"/>
<text text-anchor="start" x="241.5" y="-403.3" font-family="monospace" font-size="14.00">den: i32</text>
</g>
<!-- stack&#45;&gt;obj_r -->
<g id="edge1" class="edge"><title>stack:ptr_r&#45;&gt;obj_r:h</title>
<path fill="none" stroke="black" d="M134,-363.5C190.186,-363.5 179.366,-439.401 227.438,-448.592"/>
<polygon fill="black" stroke="black" points="227.226,-452.087 237.5,-449.5 227.855,-445.116 227.226,-452.087"/>
</g>
<!-- obj_c -->
<g id="node3" class="node"><title>obj_c</title>
<polygon fill="black" stroke="none" points="242.5,-280.5 242.5,-301.5 374.5,-301.5 374.5,-280.5 242.5,-280.5"/>
<polygon fill="none" stroke="black" points="242.5,-280.5 242.5,-301.5 374.5,-301.5 374.5,-280.5 242.5,-280.5"/>
<text text-anchor="start" x="245.5" y="-288.3" font-family="Times,serif" font-size="14.00" fill="white">Instance of  </text>
<text text-anchor="start" x="313.5" y="-288.3" font-family="monospace" font-size="14.00" fill="white">Complex</text>
<polygon fill="none" stroke="black" points="242.5,-259.5 242.5,-280.5 374.5,-280.5 374.5,-259.5 242.5,-259.5"/>
<text text-anchor="start" x="245.5" y="-266.3" font-family="monospace" font-size="14.00">real: f32</text>
<polygon fill="none" stroke="black" points="242.5,-238.5 242.5,-259.5 374.5,-259.5 374.5,-238.5 242.5,-238.5"/>
<text text-anchor="start" x="245.5" y="-245.3" font-family="monospace" font-size="14.00">imginary: f32</text>
</g>
<!-- stack&#45;&gt;obj_c -->
<g id="edge4" class="edge"><title>stack:ptr_c&#45;&gt;obj_c:h</title>
<path fill="none" stroke="black" d="M134,-273.5C178.848,-273.5 191.273,-288.927 231.308,-291.217"/>
<polygon fill="black" stroke="black" points="231.407,-294.721 241.5,-291.5 231.601,-287.724 231.407,-294.721"/>
</g>
<!-- obj_i32 -->
<g id="node4" class="node"><title>obj_i32</title>
<polygon fill="black" stroke="none" points="259.5,-123.5 259.5,-144.5 358.5,-144.5 358.5,-123.5 259.5,-123.5"/>
<polygon fill="none" stroke="black" points="259.5,-123.5 259.5,-144.5 358.5,-144.5 358.5,-123.5 259.5,-123.5"/>
<text text-anchor="start" x="262.5" y="-131.3" font-family="Times,serif" font-size="14.00" fill="white">Instance of  </text>
<text text-anchor="start" x="330.5" y="-131.3" font-family="monospace" font-size="14.00" fill="white">i32</text>
<polygon fill="none" stroke="black" points="259.5,-102.5 259.5,-123.5 358.5,-123.5 358.5,-102.5 259.5,-102.5"/>
<text text-anchor="start" x="262.5" y="-109.3" font-family="monospace" font-size="14.00">i32</text>
</g>
<!-- stack&#45;&gt;obj_i32 -->
<g id="edge7" class="edge"><title>stack:ptr_i32&#45;&gt;obj_i32:h</title>
<path fill="none" stroke="black" d="M134,-140.5C185.827,-140.5 201.163,-135.249 248.286,-134.572"/>
<polygon fill="black" stroke="black" points="248.525,-138.07 258.5,-134.5 248.476,-131.07 248.525,-138.07"/>
</g>
<!-- table_r -->
<g id="node5" class="node"><title>table_r</title>
<polygon fill="black" stroke="none" points="244.5,-349.5 244.5,-370.5 373.5,-370.5 373.5,-349.5 244.5,-349.5"/>
<polygon fill="none" stroke="black" points="244.5,-349.5 244.5,-370.5 373.5,-370.5 373.5,-349.5 244.5,-349.5"/>
<text text-anchor="start" x="247.5" y="-357.3" font-family="Times,serif" font-size="14.00" fill="white">vtable of  </text>
<text text-anchor="start" x="303.5" y="-357.3" font-family="monospace" font-size="14.00" fill="white">Rational</text>
<polygon fill="none" stroke="black" points="244.5,-328.5 244.5,-349.5 373.5,-349.5 373.5,-328.5 244.5,-328.5"/>
<text text-anchor="start" x="247.5" y="-335.3" font-family="monospace" font-size="14.00">to_json()</text>
</g>
<!-- stack&#45;&gt;table_r -->
<g id="edge2" class="edge"><title>stack:vr&#45;&gt;table_r</title>
<path fill="none" stroke="black" d="M134,-342.5C163.933,-342.5 196.747,-343.553 225.704,-344.842"/>
<polygon fill="black" stroke="black" points="225.624,-348.342 235.775,-345.307 225.947,-341.35 225.624,-348.342"/>
</g>
<!-- table_c -->
<g id="node6" class="node"><title>table_c</title>
<polygon fill="black" stroke="none" points="248.5,-191.5 248.5,-212.5 368.5,-212.5 368.5,-191.5 248.5,-191.5"/>
<polygon fill="none" stroke="black" points="248.5,-191.5 248.5,-212.5 368.5,-212.5 368.5,-191.5 248.5,-191.5"/>
<text text-anchor="start" x="251.5" y="-199.3" font-family="Times,serif" font-size="14.00" fill="white">vtable of  </text>
<text text-anchor="start" x="307.5" y="-199.3" font-family="monospace" font-size="14.00" fill="white">Complex</text>
<polygon fill="none" stroke="black" points="248.5,-170.5 248.5,-191.5 368.5,-191.5 368.5,-170.5 248.5,-170.5"/>
<text text-anchor="start" x="251.5" y="-177.3" font-family="monospace" font-size="14.00">to_json()</text>
</g>
<!-- stack&#45;&gt;table_c -->
<g id="edge5" class="edge"><title>stack:vc&#45;&gt;table_c</title>
<path fill="none" stroke="black" d="M134,-251.5C154.861,-251.5 199.754,-235.811 238.647,-220.478"/>
<polygon fill="black" stroke="black" points="240.393,-223.55 248.388,-216.598 237.803,-217.048 240.393,-223.55"/>
</g>
<!-- table_i32 -->
<g id="node7" class="node"><title>table_i32</title>
<polygon fill="black" stroke="none" points="265.5,-55.5 265.5,-76.5 352.5,-76.5 352.5,-55.5 265.5,-55.5"/>
<polygon fill="none" stroke="black" points="265.5,-55.5 265.5,-76.5 352.5,-76.5 352.5,-55.5 265.5,-55.5"/>
<text text-anchor="start" x="268.5" y="-63.3" font-family="Times,serif" font-size="14.00" fill="white">vtable of  </text>
<text text-anchor="start" x="324.5" y="-63.3" font-family="monospace" font-size="14.00" fill="white">i32</text>
<polygon fill="none" stroke="black" points="265.5,-34.5 265.5,-55.5 352.5,-55.5 352.5,-34.5 265.5,-34.5"/>
<text text-anchor="start" x="268.5" y="-41.3" font-family="monospace" font-size="14.00">to_json()</text>
</g>
<!-- stack&#45;&gt;table_i32 -->
<g id="edge8" class="edge"><title>stack:vi&#45;&gt;table_i32</title>
<path fill="none" stroke="black" d="M134,-119.5C145.877,-119.5 201.992,-98.1167 247.236,-80.0703"/>
<polygon fill="black" stroke="black" points="248.723,-83.2451 256.706,-76.279 246.121,-76.7466 248.723,-83.2451"/>
</g>
<!-- func_r -->
<g id="node8" class="node"><title>func_r</title>
<polygon fill="black" stroke="none" points="481.5,-357.5 481.5,-378.5 644.5,-378.5 644.5,-357.5 481.5,-357.5"/>
<polygon fill="none" stroke="black" points="481.5,-357.5 481.5,-378.5 644.5,-378.5 644.5,-357.5 481.5,-357.5"/>
<text text-anchor="start" x="484.5" y="-364.3" font-family="monospace" font-size="14.00" fill="white">Rational::to_json()</text>
<polygon fill="none" stroke="black" points="481.5,-297.5 481.5,-357.5 644.5,-357.5 644.5,-297.5 481.5,-297.5"/>
<text text-anchor="start" x="484.5" y="-323.8" font-family="Times,serif" font-size="14.00">(method implementation)</text>
</g>
<!-- table_r&#45;&gt;func_r -->
<g id="edge3" class="edge"><title>table_r:f&#45;&gt;func_r</title>
<path fill="none" stroke="black" d="M374.5,-338.5C402.981,-338.5 433.901,-338.5 462.245,-338.5"/>
<polygon fill="black" stroke="black" points="462.562,-342 472.562,-338.5 462.562,-335 462.562,-342"/>
</g>
<!-- func_c -->
<g id="node9" class="node"><title>func_c</title>
<polygon fill="black" stroke="none" points="485.5,-199.5 485.5,-220.5 640.5,-220.5 640.5,-199.5 485.5,-199.5"/>
<polygon fill="none" stroke="black" points="485.5,-199.5 485.5,-220.5 640.5,-220.5 640.5,-199.5 485.5,-199.5"/>
<text text-anchor="start" x="488.5" y="-206.3" font-family="monospace" font-size="14.00" fill="white">Complex::to_json()</text>
<polygon fill="none" stroke="black" points="485.5,-139.5 485.5,-199.5 640.5,-199.5 640.5,-139.5 485.5,-139.5"/>
<text text-anchor="start" x="488.5" y="-165.8" font-family="Times,serif" font-size="14.00">(method implementation)</text>
</g>
<!-- table_c&#45;&gt;func_c -->
<g id="edge6" class="edge"><title>table_c:f&#45;&gt;func_c</title>
<path fill="none" stroke="black" d="M369.5,-180.5C401.095,-180.5 435.615,-180.5 466.562,-180.5"/>
<polygon fill="black" stroke="black" points="466.911,-184 476.911,-180.5 466.911,-177 466.911,-184"/>
</g>
<!-- func_i32 -->
<g id="node10" class="node"><title>func_i32</title>
<polygon fill="black" stroke="none" points="489.5,-63.5 489.5,-84.5 636.5,-84.5 636.5,-63.5 489.5,-63.5"/>
<polygon fill="none" stroke="black" points="489.5,-63.5 489.5,-84.5 636.5,-84.5 636.5,-63.5 489.5,-63.5"/>
<text text-anchor="start" x="505" y="-70.3" font-family="monospace" font-size="14.00" fill="white">i32::to_json()</text>
<polygon fill="none" stroke="black" points="489.5,-3.5 489.5,-63.5 636.5,-63.5 636.5,-3.5 489.5,-3.5"/>
<text text-anchor="start" x="492.5" y="-29.8" font-family="Times,serif" font-size="14.00">(method implementation)</text>
</g>
<!-- table_i32&#45;&gt;func_i32 -->
<g id="edge9" class="edge"><title>table_i32:f&#45;&gt;func_i32</title>
<path fill="none" stroke="black" d="M353.5,-44.5C391.954,-44.5 434.407,-44.5 470.878,-44.5"/>
<polygon fill="black" stroke="black" points="470.998,-48.0001 480.998,-44.5 470.998,-41.0001 470.998,-48.0001"/>
</g>
</g>
</svg>
